<svg xmlns="http://www.w3.org/2000/svg" width="24" height="24" fill="none" viewBox="0 0 24 24"><path fill="#714400" fill-rule="evenodd" d="M22.2248 2.91367L17.7268 10.721C17.6981 10.779 17.6552 10.8289 17.6021 10.866C17.5491 10.9031 17.4875 10.9263 17.4231 10.9334C17.3587 10.9404 17.2936 10.9312 17.2337 10.9064C17.1738 10.8817 17.1212 10.8423 17.0805 10.7919C16.2456 9.75455 15.1114 8.99973 13.8321 8.63017V8.62905C13.7758 8.613 13.724 8.58434 13.6804 8.54525C13.6369 8.50617 13.6028 8.45768 13.5808 8.40347C13.5588 8.34925 13.5494 8.29074 13.5534 8.23236C13.5574 8.17398 13.5746 8.11728 13.6037 8.06655L16.8231 2.49142C16.8562 2.42939 16.9057 2.37761 16.9661 2.34168C17.0266 2.30575 17.0957 2.28705 17.166 2.28761L21.894 2.33673C21.9613 2.33726 22.0272 2.35539 22.0853 2.38933C22.1434 2.42326 22.1915 2.47182 22.225 2.53016C22.2584 2.58851 22.276 2.6546 22.276 2.72185C22.276 2.7891 22.2583 2.85518 22.2248 2.91348V2.91367ZM7.17097 2.52255L10.3772 8.07555C10.4095 8.12593 10.4297 8.18312 10.4361 8.24262C10.4425 8.30212 10.435 8.3623 10.4142 8.41841C10.3934 8.47452 10.3598 8.52502 10.3161 8.56594C10.2725 8.60685 10.2199 8.63706 10.1625 8.65417C9.52982 8.84536 8.93031 9.13279 8.38504 9.50636C7.84023 9.8793 7.35537 10.333 6.9471 10.8519C6.90876 10.9032 6.85825 10.9443 6.80012 10.9712C6.74198 10.9982 6.67805 11.0103 6.61407 11.0065C6.55009 11.0026 6.48808 10.9829 6.43362 10.9491C6.37916 10.9153 6.33396 10.8685 6.3021 10.8129L1.77397 2.91367C1.74052 2.85509 1.72304 2.78876 1.72327 2.7213C1.7235 2.65385 1.74143 2.58764 1.77528 2.52928C1.80912 2.47093 1.85769 2.42249 1.91613 2.3888C1.97457 2.35511 2.04083 2.33735 2.10829 2.3373L6.8136 2.33148C6.8849 2.32731 6.95596 2.34301 7.01886 2.37684C7.08176 2.41068 7.13403 2.46132 7.16985 2.52311" clip-rule="evenodd"/><path fill="#D67A0E" fill-rule="evenodd" d="M12.0374 7.9917C13.3943 7.9917 14.7207 8.39406 15.8489 9.14789C16.9771 9.90173 17.8564 10.9732 18.3757 12.2268C18.8949 13.4803 19.0308 14.8597 18.7661 16.1905C18.5013 17.5213 17.8479 18.7437 16.8885 19.7032C15.9291 20.6626 14.7066 21.316 13.3758 21.5808C12.045 21.8455 10.6656 21.7096 9.41206 21.1904C8.15848 20.6711 7.08703 19.7918 6.33319 18.6636C5.57936 17.5354 5.177 16.209 5.177 14.8521C5.177 13.0326 5.8998 11.2877 7.18638 10.0011C8.47296 8.71449 10.2179 7.9917 12.0374 7.9917Z" clip-rule="evenodd"/><path fill="#B05F00" fill-rule="evenodd" d="M12.0375 7.9917C11.9583 7.9917 11.88 7.99489 11.8014 7.9977C13.5781 8.05935 15.2615 8.80851 16.4967 10.0872C17.7318 11.366 18.4221 13.0743 18.4221 14.8521C18.4221 16.63 17.7318 18.3383 16.4967 19.617C15.2615 20.8958 13.5781 21.6449 11.8014 21.7066C11.88 21.7092 11.9583 21.7126 12.0375 21.7126C13.857 21.7126 15.6019 20.9898 16.8885 19.7032C18.1751 18.4166 18.8979 16.6716 18.8979 14.8521C18.8979 13.0326 18.1751 11.2877 16.8885 10.0011C15.6019 8.71449 13.857 7.9917 12.0375 7.9917Z" clip-rule="evenodd"/><path fill="#B05F00" d="M15.8048 11.391C15.004 10.5902 13.9504 10.0918 12.8234 9.98081C11.6964 9.8698 10.5658 10.153 9.62415 10.7821C8.68254 11.4113 7.9882 12.3474 7.65945 13.4311C7.3307 14.5148 7.38787 15.679 7.82122 16.7252C8.25458 17.7715 9.0373 18.6351 10.036 19.169C11.0347 19.7028 12.1877 19.8739 13.2984 19.6529C14.4091 19.432 15.4088 18.8328 16.1273 17.9575C16.8457 17.0821 17.2384 15.9847 17.2384 14.8522C17.2393 14.2093 17.113 13.5725 16.867 12.9785C16.621 12.3845 16.26 11.845 15.8048 11.391ZM12.3435 9.18409C13.6549 9.18404 14.9258 9.6387 15.9395 10.4706C16.9533 11.3025 17.6472 12.4602 17.9031 13.7464C18.159 15.0326 17.961 16.3677 17.3428 17.5243C16.7247 18.6808 15.7246 19.5873 14.5131 20.0892C13.3015 20.5911 11.9534 20.6573 10.6985 20.2767C9.44353 19.896 8.3594 19.092 7.6308 18.0017C6.90219 16.9113 6.5742 15.602 6.7027 14.297C6.83121 12.9919 7.40826 11.7717 8.33553 10.8444C8.86128 10.3173 9.48602 9.8992 10.1738 9.61427C10.8617 9.32934 11.599 9.18314 12.3435 9.18409Z"/><path fill="#B05F00" d="M12.7721 12.0011L13.299 13.6335L15.0187 13.6301C15.1134 13.6302 15.2056 13.6602 15.2822 13.7159C15.3587 13.7717 15.4157 13.8502 15.4448 13.9403C15.474 14.0303 15.4738 14.1273 15.4445 14.2173C15.4151 14.3073 15.3579 14.3857 15.2812 14.4412V14.4422L13.8898 15.45L14.4242 17.0839C14.4537 17.1768 14.4522 17.2767 14.42 17.3687C14.3878 17.4607 14.3267 17.5397 14.2457 17.594C14.1647 17.6482 14.0683 17.6747 13.971 17.6694C13.8737 17.6641 13.7807 17.6274 13.706 17.5648L12.344 16.5711L10.9547 17.5845C10.8782 17.6403 10.786 17.6704 10.6913 17.6705C10.5967 17.6707 10.5044 17.6408 10.4278 17.5852C10.3512 17.5296 10.2941 17.4511 10.2649 17.3611C10.2357 17.271 10.2357 17.1741 10.265 17.0841H10.2639L10.7981 15.45L9.40573 14.4424C9.32707 14.3848 9.26923 14.3032 9.24093 14.2099C9.21263 14.1166 9.2154 14.0166 9.24881 13.9251C9.28222 13.8335 9.34448 13.7552 9.4262 13.702C9.50793 13.6489 9.60471 13.6237 9.70198 13.6303L11.3895 13.6337L11.9175 11.9983C11.9466 11.9076 12.0039 11.8285 12.081 11.7725C12.1581 11.7164 12.251 11.6864 12.3463 11.6868C12.4416 11.6871 12.5343 11.7178 12.611 11.7743C12.6877 11.8309 12.7444 11.9104 12.7729 12.0013"/><path fill="#EFA042" d="M15.4988 11.391C14.698 10.5902 13.6444 10.0918 12.5174 9.98081C11.3904 9.8698 10.2597 10.153 9.31812 10.7821C8.37651 11.4113 7.68217 12.3474 7.35342 13.4311C7.02467 14.5148 7.08184 15.679 7.51519 16.7252C7.94855 17.7715 8.73127 18.6351 9.72999 19.169C10.7287 19.7028 11.8817 19.8739 12.9924 19.653C14.103 19.432 15.1028 18.8328 15.8212 17.9575C16.5397 17.0821 16.9324 15.9847 16.9324 14.8522C16.9332 14.2093 16.807 13.5725 16.561 12.9785C16.315 12.3845 15.954 11.845 15.4988 11.391ZM12.0375 9.18409C13.3489 9.18404 14.6197 9.6387 15.6335 10.4706C16.6472 11.3025 17.3412 12.4602 17.5971 13.7464C17.8529 15.0326 17.6549 16.3677 17.0368 17.5243C16.4186 18.6808 15.4186 19.5873 14.207 20.0892C12.9955 20.5911 11.6474 20.6573 10.3924 20.2767C9.1375 19.896 8.05337 19.092 7.32477 18.0017C6.59616 16.9113 6.26817 15.602 6.39667 14.297C6.52518 12.9919 7.10223 11.7717 8.0295 10.8444C8.55524 10.3172 9.17998 9.89919 9.86781 9.61425C10.5556 9.32932 11.293 9.18313 12.0375 9.18409Z"/><path fill="#EFA042" d="M12.4663 12.001L12.9932 13.6334L14.7129 13.63C14.8076 13.6301 14.8999 13.6601 14.9764 13.7158C15.0529 13.7715 15.1099 13.8501 15.139 13.9402C15.1682 14.0302 15.1681 14.1272 15.1387 14.2172C15.1093 14.3072 15.0521 14.3856 14.9754 14.4411V14.4421L13.584 15.4499L14.1184 17.0838C14.1479 17.1767 14.1465 17.2767 14.1143 17.3687C14.0821 17.4608 14.0209 17.5399 13.9399 17.5941C13.8589 17.6483 13.7624 17.6748 13.6651 17.6695C13.5677 17.6642 13.4747 17.6274 13.4001 17.5647L12.0375 16.5711L10.6481 17.5846C10.5716 17.6402 10.4795 17.6702 10.3849 17.6703C10.2903 17.6704 10.1981 17.6405 10.1215 17.5849C10.0449 17.5293 9.98792 17.451 9.95864 17.361C9.92936 17.271 9.92931 17.1741 9.95851 17.0841H9.95738L10.4925 15.4499L9.09994 14.4423C9.02128 14.3847 8.96345 14.3031 8.93515 14.2098C8.90685 14.1165 8.90961 14.0165 8.94302 13.9249C8.97644 13.8334 9.03869 13.7551 9.12042 13.7019C9.20214 13.6488 9.29892 13.6236 9.39619 13.6302L11.0837 13.6336L11.6117 11.9982C11.6408 11.9074 11.698 11.8283 11.7751 11.7723C11.8522 11.7162 11.9451 11.6862 12.0404 11.6865C12.1357 11.6869 12.2284 11.7175 12.3051 11.7741C12.3818 11.8307 12.4384 11.9102 12.4669 12.0012"/></svg>