<svg xmlns="http://www.w3.org/2000/svg" width="87" height="27" fill="none" viewBox="0 0 87 27"><path fill="url(#paint0_linear_356_477)" fill-rule="evenodd" d="M6.00009 2.50003C6.00009 4.43303 4.43309 6.00003 2.50009 6.00003C2.31011 6.00003 2.12366 5.98489 1.94189 5.95576V25.45H12.2319C14.1319 25.45 15.8019 25.15 17.2419 24.55C18.7019 23.97 19.9219 23.15 20.9019 22.09C21.9019 21.03 22.6519 19.77 23.1519 18.31C23.6719 16.83 23.9319 15.21 23.9319 13.45C23.9319 11.75 23.6919 10.18 23.2119 8.74003C22.7519 7.28003 22.0719 6.02003 21.1719 4.96003C20.2719 3.90003 19.1719 3.07003 17.8719 2.47003C16.5919 1.85003 15.1419 1.54003 13.5219 1.54003H5.8668C5.95362 1.84509 6.00009 2.16713 6.00009 2.50003ZM8.1819 20.29H11.8719C12.8519 20.29 13.7019 20.11 14.4219 19.75C15.1619 19.37 15.7719 18.87 16.2519 18.25C16.7319 17.61 17.0919 16.87 17.3319 16.03C17.5719 15.19 17.6919 14.3 17.6919 13.36C17.6919 12.44 17.5519 11.58 17.2719 10.78C16.9919 9.96003 16.5819 9.25003 16.0419 8.65003C15.5219 8.05003 14.8719 7.58003 14.0919 7.24003C13.3119 6.88003 12.4119 6.70003 11.3919 6.70003H8.1819V20.29ZM39.8181 20.89C41.4181 20.89 42.7281 20.52 43.7481 19.78C44.7681 19.04 45.3781 17.99 45.5781 16.63H39.2481V11.47H51.8481V14.8C51.8481 16.64 51.5281 18.26 50.8881 19.66C50.2681 21.06 49.4081 22.23 48.3081 23.17C47.2281 24.11 45.9581 24.82 44.4981 25.3C43.0381 25.8 41.4881 26.05 39.8481 26.05C38.0281 26.05 36.3281 25.74 34.7481 25.12C33.1881 24.5 31.8281 23.63 30.6681 22.51C29.5081 21.41 28.5881 20.09 27.9081 18.55C27.2481 17.01 26.9181 15.32 26.9181 13.48C26.9181 11.64 27.2481 9.95003 27.9081 8.41003C28.5881 6.87003 29.5081 5.55003 30.6681 4.45003C31.8481 3.33003 33.2381 2.46003 34.8381 1.84003C36.4381 1.22003 38.1581 0.910034 39.9981 0.910034C42.4781 0.910034 44.6181 1.42003 46.4181 2.44003C48.2181 3.44003 49.8381 4.93003 51.2781 6.91003L47.1681 10.36C46.4281 9.04003 45.4481 7.99003 44.2281 7.21003C43.0281 6.43003 41.5881 6.04003 39.9081 6.04003C39.0081 6.04003 38.1481 6.22003 37.3281 6.58003C36.5081 6.94003 35.7881 7.45003 35.1681 8.11003C34.5681 8.75003 34.0781 9.53003 33.6981 10.45C33.3381 11.35 33.1581 12.36 33.1581 13.48C33.1581 14.6 33.3281 15.62 33.6681 16.54C34.0081 17.44 34.4781 18.22 35.0781 18.88C35.6781 19.52 36.3781 20.02 37.1781 20.38C37.9981 20.72 38.8781 20.89 39.8181 20.89ZM61.678 1.54003V25.45H55.438V1.54003H61.678ZM75.5932 25.45C75.2187 24.8928 75.0001 24.2219 75.0001 23.5C75.0001 21.5678 76.5658 20.0013 78.4977 20V6.70003H86.0877V1.54003H64.6677V6.70003H72.2577V25.45H75.5932Z" clip-rule="evenodd"/><circle cx="2" cy="2" r="2" fill="#fff"/><circle cx="79" cy="24" r="2" fill="#fff"/><defs><linearGradient id="paint0_linear_356_477" x1="2" x2="86" y1="13" y2="13" gradientUnits="userSpaceOnUse"><stop stop-color="#fff"/><stop offset="1" stop-color="#fff"/></linearGradient></defs></svg>