<svg width="50" height="50" viewBox="0 0 50 50" fill="none" xmlns="http://www.w3.org/2000/svg">
<g clip-path="url(#clip0_368_1234)">
<path d="M25 50.0001C38.8071 50.0001 50 38.8072 50 25.0001C50 11.193 38.8071 0 25 0C11.1929 0 0 11.193 0 25.0001C0 38.8072 11.1929 50.0001 25 50.0001Z" fill="white" fill-opacity="0.55"/>
<path d="M48.1508 34.3902C48.4232 33.7336 48.6676 33.0657 48.8832 32.3882C49.13 31.5914 49.3367 30.7827 49.5027 29.9651C49.5834 29.5114 49.6516 29.0555 49.7072 28.598L39.0748 17.9656C39.0802 17.8628 39.0638 17.7601 39.0269 17.664C38.99 17.5679 38.9333 17.4806 38.8605 17.4079C38.7877 17.3351 38.7005 17.2784 38.6044 17.2415C38.5083 17.2045 38.4055 17.1882 38.3027 17.1935L36.0963 14.9871C36.0976 14.889 36.0792 14.7916 36.0423 14.7007C36.0053 14.6097 35.9505 14.5271 35.8811 14.4577C35.8117 14.3883 35.7291 14.3335 35.6382 14.2966C35.5472 14.2596 35.4498 14.2412 35.3517 14.2425C35.1571 14.2456 34.9717 14.3257 34.8361 14.4653C34.7006 14.6049 34.6259 14.7925 34.6284 14.9871V17.1935H32.422C32.3976 17.1923 32.3732 17.1923 32.3488 17.1935C32.1572 17.2075 31.9788 17.2959 31.8516 17.4397C31.7244 17.5836 31.6585 17.7715 31.6681 17.9633C31.6777 18.1551 31.7619 18.3355 31.9028 18.466C32.0437 18.5964 32.23 18.6666 32.422 18.6614L34.6284 20.8679C34.6231 20.9707 34.6394 21.0734 34.6763 21.1695C34.7133 21.2656 34.7699 21.3529 34.8427 21.4256C34.9155 21.4984 35.0028 21.5551 35.0989 21.592C35.1949 21.629 35.2977 21.6453 35.4005 21.64L48.1508 34.3902ZM26.2208 49.9542C26.403 49.9501 26.5851 49.9439 26.7671 49.9359C27.5986 49.8776 28.4266 49.7778 29.2482 49.6368C30.0696 49.4944 30.8834 49.3111 31.6865 49.0875C32.4896 48.8647 33.281 48.6019 34.0577 48.3001C34.8352 47.9986 35.597 47.6584 36.3405 47.2808C37.083 46.9022 37.8062 46.4866 38.5072 46.0357C39.2085 45.5857 39.8868 45.1008 40.5397 44.5831C41.1924 44.0654 41.8187 43.5154 42.4165 42.9351C43.0154 42.3536 43.5847 41.7425 44.1224 41.1041C44.6587 40.4674 45.1629 39.8043 45.6331 39.1174C46.0025 38.5638 46.3496 37.9957 46.6737 37.4145L27.9725 18.7133C27.0403 17.7811 25.7542 17.2027 24.3379 17.2027C21.5052 17.2027 19.1927 19.5153 19.1926 22.348C19.1926 23.7644 19.771 25.0504 20.7032 25.9826L23.7092 28.9886C18.3688 29.2655 14.0474 33.0217 14.0474 37.7807L26.2208 49.9542Z" fill="#9A9A9A"/>
<path d="M35.3512 14.2429C35.1566 14.246 34.9712 14.3261 34.8356 14.4657C34.7001 14.6053 34.6254 14.7929 34.6279 14.9875V17.1939H32.4215C32.3971 17.1927 32.3727 17.1927 32.3483 17.1939C32.1568 17.2079 31.9783 17.2962 31.8511 17.4401C31.7239 17.5839 31.658 17.7719 31.6676 17.9636C31.6772 18.1554 31.7614 18.3359 31.9023 18.4663C32.0432 18.5968 32.2296 18.667 32.4215 18.6618H34.6279V20.8682C34.6224 20.968 34.6374 21.0678 34.6718 21.1617C34.7062 21.2555 34.7594 21.3413 34.828 21.4139C34.8967 21.4864 34.9795 21.5442 35.0713 21.5837C35.1631 21.6232 35.262 21.6436 35.3619 21.6436C35.4618 21.6436 35.5607 21.6232 35.6525 21.5837C35.7442 21.5442 35.827 21.4864 35.8957 21.4139C35.9644 21.3413 36.0176 21.2555 36.052 21.1617C36.0864 21.0678 36.1013 20.968 36.0958 20.8682V18.6618H38.3022C38.402 18.6673 38.5019 18.6524 38.5957 18.618C38.6895 18.5836 38.7753 18.5304 38.8479 18.4617C38.9204 18.393 38.9782 18.3102 39.0177 18.2184C39.0572 18.1267 39.0776 18.0278 39.0776 17.9279C39.0776 17.8279 39.0572 17.7291 39.0177 17.6373C38.9782 17.5455 38.9204 17.4627 38.8479 17.394C38.7753 17.3253 38.6895 17.2722 38.5957 17.2378C38.5019 17.2033 38.402 17.1884 38.3022 17.1939H36.0958V14.9875C36.0971 14.8893 36.0787 14.7919 36.0418 14.701C36.0048 14.6101 35.95 14.5275 35.8806 14.4581C35.8112 14.3887 35.7286 14.3339 35.6377 14.2969C35.5467 14.26 35.4493 14.2416 35.3512 14.2429ZM24.3374 17.2031C21.5047 17.2031 19.1922 19.5157 19.1921 22.3483C19.1922 25.1811 21.5047 27.4936 24.3374 27.4936C27.1701 27.4936 29.4826 25.1811 29.4827 22.3483C29.4826 19.5157 27.1701 17.2031 24.3374 17.2031ZM24.3374 18.674C26.3757 18.674 28.0117 20.31 28.0117 22.3483C28.0117 24.3868 26.3757 26.0226 24.3374 26.0226C22.2991 26.0226 20.6631 24.3868 20.6631 22.3483C20.6631 20.31 22.2991 18.674 24.3374 18.674ZM24.3374 28.9615C18.7103 28.9615 14.0469 32.8359 14.0469 37.7811H15.5178C15.5178 33.7684 19.3778 30.4324 24.3374 30.4324C29.297 30.4324 33.157 33.7684 33.157 37.7811H34.6249C34.6249 32.8359 29.9645 28.9615 24.3374 28.9615Z" fill="white"/>
</g>
<defs>
<clipPath id="clip0_368_1234">
<rect width="50" height="50" fill="white"/>
</clipPath>
</defs>
</svg>
