<svg width="87" height="27" viewBox="0 0 87 27" fill="none" xmlns="http://www.w3.org/2000/svg">
<path fill-rule="evenodd" clip-rule="evenodd" d="M5.99997 2.49991C5.99997 4.4329 4.43297 5.99991 2.49997 5.99991C2.30999 5.99991 2.12354 5.98477 1.94177 5.95564V25.4499H12.2318C14.1318 25.4499 15.8018 25.1499 17.2418 24.5499C18.7018 23.9699 19.9218 23.1499 20.9018 22.0899C21.9018 21.0299 22.6518 19.7699 23.1518 18.3099C23.6718 16.8299 23.9318 15.2099 23.9318 13.4499C23.9318 11.7499 23.6918 10.1799 23.2118 8.73991C22.7518 7.27991 22.0718 6.01991 21.1718 4.95991C20.2718 3.89991 19.1718 3.06991 17.8718 2.46991C16.5918 1.84991 15.1418 1.53991 13.5218 1.53991H5.86667C5.95349 1.84497 5.99997 2.16701 5.99997 2.49991ZM8.18177 20.2899H11.8718C12.8518 20.2899 13.7018 20.1099 14.4218 19.7499C15.1618 19.3699 15.7718 18.8699 16.2518 18.2499C16.7318 17.6099 17.0918 16.8699 17.3318 16.0299C17.5718 15.1899 17.6918 14.2999 17.6918 13.3599C17.6918 12.4399 17.5518 11.5799 17.2718 10.7799C16.9918 9.95991 16.5818 9.24991 16.0418 8.64991C15.5218 8.04991 14.8718 7.57991 14.0918 7.23991C13.3118 6.87991 12.4118 6.69991 11.3918 6.69991H8.18177V20.2899ZM39.8179 20.8899C41.4179 20.8899 42.7279 20.5199 43.7479 19.7799C44.7679 19.0399 45.3779 17.9899 45.5779 16.6299H39.2479V11.4699H51.8479V14.7999C51.8479 16.6399 51.5279 18.2599 50.8879 19.6599C50.2679 21.0599 49.4079 22.2299 48.3079 23.1699C47.2279 24.1099 45.9579 24.8199 44.4979 25.2999C43.0379 25.7999 41.4879 26.0499 39.8479 26.0499C38.0279 26.0499 36.3279 25.7399 34.7479 25.1199C33.1879 24.4999 31.8279 23.6299 30.6679 22.5099C29.5079 21.4099 28.5879 20.0899 27.9079 18.5499C27.2479 17.0099 26.9179 15.3199 26.9179 13.4799C26.9179 11.6399 27.2479 9.94991 27.9079 8.40991C28.5879 6.86991 29.5079 5.54991 30.6679 4.44991C31.8479 3.32991 33.2379 2.45991 34.8379 1.83991C36.4379 1.21991 38.1579 0.909912 39.9979 0.909912C42.4779 0.909912 44.6179 1.41991 46.4179 2.43991C48.2179 3.43991 49.8379 4.92991 51.2779 6.90991L47.1679 10.3599C46.4279 9.03991 45.4479 7.98991 44.2279 7.20991C43.0279 6.42991 41.5879 6.03991 39.9079 6.03991C39.0079 6.03991 38.1479 6.21991 37.3279 6.57991C36.5079 6.93991 35.7879 7.44991 35.1679 8.10991C34.5679 8.74991 34.0779 9.52991 33.6979 10.4499C33.3379 11.3499 33.1579 12.3599 33.1579 13.4799C33.1579 14.5999 33.3279 15.6199 33.6679 16.5399C34.0079 17.4399 34.4779 18.2199 35.0779 18.8799C35.6779 19.5199 36.3779 20.0199 37.1779 20.3799C37.9979 20.7199 38.8779 20.8899 39.8179 20.8899ZM61.6779 1.53991V25.4499H55.4379V1.53991H61.6779ZM75.5931 25.4499C75.2185 24.8927 75 24.2218 75 23.4999C75 21.5677 76.5657 20.0012 78.4976 19.9999V6.69991H86.0876V1.53991H64.6676V6.69991H72.2576V25.4499H75.5931Z" fill="url(#paint0_linear_19:20)"/>
<circle cx="2" cy="2" r="2" fill="#3B4057"/>
<circle cx="79" cy="24" r="2" fill="#303133"/>
<defs>
<linearGradient id="paint0_linear_19:20" x1="1.99997" y1="12.9999" x2="86" y2="12.9999" gradientUnits="userSpaceOnUse">
<stop stop-color="#3C4159"/>
<stop offset="1" stop-color="#2F2F2F"/>
</linearGradient>
</defs>
</svg>
