<svg xmlns="http://www.w3.org/2000/svg" width="50" height="50" fill="none" viewBox="0 0 50 50"><g clip-path="url(#clip0_69:4)"><path fill="#3B4057" d="M25 50.0001C38.8071 50.0001 50 38.8072 50 25.0001C50 11.193 38.8071 0 25 0C11.1929 0 0 11.193 0 25.0001C0 38.8072 11.1929 50.0001 25 50.0001Z"/><path fill="#303133" d="M47.5 35.5C47.7725 34.8434 47.9995 33.8721 48.2151 33.1947C48.4619 32.3979 48.6686 31.5891 48.8346 30.7716C48.9153 30.3179 49.4445 26.9575 49.5 26.5L40.7231 16.2232C40.7285 16.1204 40.7121 16.0176 40.6752 15.9215C40.6383 15.8254 40.5816 15.7382 40.5088 15.6654C40.4361 15.5926 40.3488 15.5359 40.2527 15.499C40.1566 15.4621 40.0538 15.4457 39.951 15.4511L37.7446 13.2446C37.7459 13.1465 37.7275 13.0491 37.6906 12.9582C37.6536 12.8672 37.5988 12.7846 37.5294 12.7152C37.46 12.6458 37.3919 12.5969 37.2865 12.5541C37.181 12.5112 37.1138 12.4984 37 12.5C36.7807 12.5031 34.989 14.308 34.8361 14.4653C34.6833 14.6227 34.6284 14.9872 34.6284 14.9872L33.5 16.5L31.7539 18C31.7295 17.9988 31.7051 17.9988 31.6807 18C31.4891 18.014 31.3107 18.1023 31.1835 18.2462C31.0563 18.39 30.9904 18.578 31 18.7697C31.0096 18.9615 31.0938 19.142 31.2347 19.2724C31.3756 19.4029 31.562 19.4731 31.7539 19.4679L33.9603 21.6743C33.955 21.7771 33.9713 21.8799 34.0082 21.976C34.0452 22.0721 34.1018 22.1593 34.1746 22.2321C34.2474 22.3049 34.3347 22.3616 34.4308 22.3985C34.5269 22.4354 34.6296 22.4517 34.7324 22.4464L47.5 35.5ZM26.2208 49.9542C26.403 49.9501 26.5851 49.944 26.7671 49.9359C27.5986 49.8776 28.4266 49.7778 29.2482 49.6368C30.0696 49.4945 30.8834 49.3111 31.6865 49.0875C32.4896 48.8647 33.281 48.6019 34.0577 48.3001C34.8352 47.9987 35.597 47.6585 36.3405 47.2809C37.083 46.9022 37.8062 46.4866 38.5072 46.0357C39.2085 45.5857 39.8868 45.1009 40.5397 44.5831C41.1924 44.0654 41.8187 43.5154 42.4165 42.9351C43.0154 42.3537 43.5847 41.7425 44.1224 41.1041C44.6587 40.4674 45.1629 39.8044 45.6331 39.1174C46.0025 38.5638 46.3496 37.9958 46.6737 37.4145L27.9725 18.7133C27.0403 17.7812 25.7542 17.2027 24.3379 17.2027C21.5052 17.2027 19.1927 19.5153 19.1926 22.348C19.1926 23.7644 19.771 25.0504 20.7032 25.9826L23.7092 28.9886C18.3688 29.2655 14.0474 33.0217 14.0474 37.7807L26.2208 49.9542Z"/><path fill="#fff" d="M24.3374 17.2031C21.5047 17.2031 19.1922 19.5157 19.1921 22.3484C19.1922 25.1812 21.5047 27.4937 24.3374 27.4937C27.1701 27.4937 29.4826 25.1812 29.4827 22.3484C29.4826 19.5157 27.1701 17.2031 24.3374 17.2031ZM24.3374 18.6741C26.3757 18.6741 28.0117 20.3101 28.0117 22.3484C28.0117 24.3868 26.3757 26.0227 24.3374 26.0227C22.2991 26.0227 20.6631 24.3868 20.6631 22.3484C20.6631 20.3101 22.2991 18.6741 24.3374 18.6741ZM24.3374 28.9615C18.7103 28.9615 14.0469 32.836 14.0469 37.7811H15.5178C15.5178 33.7685 19.3778 30.4325 24.3374 30.4325C29.297 30.4325 33.157 33.7685 33.157 37.7811H34.6249C34.6249 32.836 29.9645 28.9615 24.3374 28.9615Z"/><path fill="#fff" d="M31.0927 18.9979C31.0324 19.0023 30.9823 18.9514 30.9866 18.8902L31.094 17.3718C31.1001 17.2857 31.203 17.2467 31.2631 17.3078L32.6509 18.7171C32.7111 18.7782 32.6727 18.8827 32.5879 18.8889L31.0927 18.9979Z"/><path fill="#fff" d="M31.9197 16.7548C31.8813 16.7159 31.8813 16.6534 31.9197 16.6145L34.8548 13.6339C34.894 13.5941 34.9581 13.5941 34.9973 13.6339L36.3947 15.0529C36.433 15.0919 36.433 15.1543 36.3947 15.1933L33.4596 18.1739C33.4204 18.2137 33.3562 18.2137 33.3171 18.1739L31.9197 16.7548Z"/><path fill="#fff" d="M35.7629 12.8509C35.7246 12.812 35.7246 12.7495 35.7629 12.7106L36.3915 12.0724C36.4306 12.0326 36.4948 12.0326 36.534 12.0724L37.9313 13.4914C37.9697 13.5303 37.9697 13.5928 37.9313 13.6317L37.3028 14.27C37.2636 14.3098 37.1995 14.3098 37.1603 14.27L35.7629 12.8509Z"/></g><defs><clipPath id="clip0_69:4"><rect width="50" height="50" fill="#fff"/></clipPath></defs></svg>